<mxfile host="app.diagrams.net" agent="Mozilla/5.0 (Windows NT 10.0; Win64; x64) AppleWebKit/537.36 (KHTML, like Gecko) Chrome/129.0.0.0 Safari/537.36 Edg/129.0.0.0" version="24.7.17">
  <diagram name="第 1 页" id="e9eeuQsETQpjQ1h56Gge">
    <mxGraphModel dx="691" dy="697" grid="1" gridSize="10" guides="1" tooltips="1" connect="1" arrows="1" fold="1" page="1" pageScale="1" pageWidth="827" pageHeight="1169" math="0" shadow="0">
      <root>
        <mxCell id="0" />
        <mxCell id="1" parent="0" />
        <mxCell id="Sm4FwYKMsThW6BvyOLC3-20" value="" style="whiteSpace=wrap;html=1;aspect=fixed;" vertex="1" parent="1">
          <mxGeometry x="380" y="360" width="240" height="240" as="geometry" />
        </mxCell>
        <mxCell id="Sm4FwYKMsThW6BvyOLC3-10" value="前台系统（接口文档，在线调用）" style="rounded=0;whiteSpace=wrap;html=1;" vertex="1" parent="1">
          <mxGeometry x="100" y="400" width="230" height="170" as="geometry" />
        </mxCell>
        <mxCell id="Sm4FwYKMsThW6BvyOLC3-4" value="后台管理系统" style="rounded=0;whiteSpace=wrap;html=1;" vertex="1" parent="1">
          <mxGeometry x="120" y="170" width="230" height="170" as="geometry" />
        </mxCell>
        <mxCell id="Sm4FwYKMsThW6BvyOLC3-3" value="" style="edgeStyle=orthogonalEdgeStyle;rounded=0;orthogonalLoop=1;jettySize=auto;html=1;" edge="1" parent="1" source="Sm4FwYKMsThW6BvyOLC3-1" target="Sm4FwYKMsThW6BvyOLC3-2">
          <mxGeometry relative="1" as="geometry" />
        </mxCell>
        <mxCell id="Sm4FwYKMsThW6BvyOLC3-1" value="管理员" style="shape=umlActor;verticalLabelPosition=bottom;verticalAlign=top;html=1;outlineConnect=0;" vertex="1" parent="1">
          <mxGeometry x="60" y="180" width="30" height="60" as="geometry" />
        </mxCell>
        <mxCell id="Sm4FwYKMsThW6BvyOLC3-5" style="edgeStyle=orthogonalEdgeStyle;rounded=0;orthogonalLoop=1;jettySize=auto;html=1;exitX=1;exitY=0.5;exitDx=0;exitDy=0;" edge="1" parent="1" source="Sm4FwYKMsThW6BvyOLC3-2" target="Sm4FwYKMsThW6BvyOLC3-6">
          <mxGeometry relative="1" as="geometry">
            <mxPoint x="410" y="210" as="targetPoint" />
            <Array as="points">
              <mxPoint x="345" y="210" />
              <mxPoint x="345" y="211" />
            </Array>
          </mxGeometry>
        </mxCell>
        <mxCell id="Sm4FwYKMsThW6BvyOLC3-2" value="发布接口&lt;div&gt;上线接口&lt;/div&gt;&lt;div&gt;设置接口次数&lt;br&gt;&lt;div&gt;&lt;br&gt;&lt;/div&gt;&lt;/div&gt;" style="whiteSpace=wrap;html=1;verticalAlign=top;" vertex="1" parent="1">
          <mxGeometry x="160" y="180" width="120" height="60" as="geometry" />
        </mxCell>
        <mxCell id="Sm4FwYKMsThW6BvyOLC3-6" value="" style="image;html=1;image=img/lib/clip_art/computers/Database_Add_128x128.png" vertex="1" parent="1">
          <mxGeometry x="420" y="170" width="80" height="80" as="geometry" />
        </mxCell>
        <mxCell id="Sm4FwYKMsThW6BvyOLC3-9" value="" style="edgeStyle=orthogonalEdgeStyle;rounded=0;orthogonalLoop=1;jettySize=auto;html=1;" edge="1" parent="1" source="Sm4FwYKMsThW6BvyOLC3-7" target="Sm4FwYKMsThW6BvyOLC3-8">
          <mxGeometry relative="1" as="geometry" />
        </mxCell>
        <mxCell id="Sm4FwYKMsThW6BvyOLC3-7" value="用户" style="shape=umlActor;verticalLabelPosition=bottom;verticalAlign=top;html=1;outlineConnect=0;" vertex="1" parent="1">
          <mxGeometry x="50" y="410" width="30" height="60" as="geometry" />
        </mxCell>
        <mxCell id="Sm4FwYKMsThW6BvyOLC3-22" style="edgeStyle=orthogonalEdgeStyle;rounded=0;orthogonalLoop=1;jettySize=auto;html=1;exitX=1;exitY=0.5;exitDx=0;exitDy=0;entryX=0;entryY=0.75;entryDx=0;entryDy=0;" edge="1" parent="1" source="Sm4FwYKMsThW6BvyOLC3-8" target="Sm4FwYKMsThW6BvyOLC3-13">
          <mxGeometry relative="1" as="geometry" />
        </mxCell>
        <mxCell id="Sm4FwYKMsThW6BvyOLC3-8" value="浏览接口&lt;div&gt;开通调用（100次）&lt;/div&gt;&lt;div&gt;调用&lt;/div&gt;" style="whiteSpace=wrap;html=1;verticalAlign=top;" vertex="1" parent="1">
          <mxGeometry x="140" y="410" width="120" height="60" as="geometry" />
        </mxCell>
        <mxCell id="Sm4FwYKMsThW6BvyOLC3-11" value="sdk" style="rounded=0;whiteSpace=wrap;html=1;" vertex="1" parent="1">
          <mxGeometry x="120" y="600" width="120" height="60" as="geometry" />
        </mxCell>
        <mxCell id="Sm4FwYKMsThW6BvyOLC3-13" value="计费" style="rounded=0;whiteSpace=wrap;html=1;" vertex="1" parent="1">
          <mxGeometry x="380" y="395" width="70" height="60" as="geometry" />
        </mxCell>
        <mxCell id="Sm4FwYKMsThW6BvyOLC3-14" value="统计次数&lt;span style=&quot;color: rgba(0, 0, 0, 0); font-family: monospace; font-size: 0px; text-align: start; text-wrap: nowrap;&quot;&gt;%3CmxGraphModel%3E%3Croot%3E%3CmxCell%20id%3D%220%22%2F%3E%3CmxCell%20id%3D%221%22%20parent%3D%220%22%2F%3E%3CmxCell%20id%3D%222%22%20value%3D%22%E8%AE%A1%E8%B4%B9%22%20style%3D%22rounded%3D0%3BwhiteSpace%3Dwrap%3Bhtml%3D1%3B%22%20vertex%3D%221%22%20parent%3D%221%22%3E%3CmxGeometry%20x%3D%22380%22%20y%3D%22555%22%20width%3D%2270%22%20height%3D%2260%22%20as%3D%22geometry%22%2F%3E%3C%2FmxCell%3E%3C%2Froot%3E%3C%2FmxGraphModel%3E&lt;/span&gt;" style="rounded=0;whiteSpace=wrap;html=1;" vertex="1" parent="1">
          <mxGeometry x="460" y="395" width="70" height="60" as="geometry" />
        </mxCell>
        <mxCell id="Sm4FwYKMsThW6BvyOLC3-15" value="流量保护" style="rounded=0;whiteSpace=wrap;html=1;" vertex="1" parent="1">
          <mxGeometry x="550" y="395" width="70" height="60" as="geometry" />
        </mxCell>
        <mxCell id="Sm4FwYKMsThW6BvyOLC3-16" value="鉴权" style="rounded=0;whiteSpace=wrap;html=1;" vertex="1" parent="1">
          <mxGeometry x="460" y="470" width="70" height="60" as="geometry" />
        </mxCell>
        <mxCell id="Sm4FwYKMsThW6BvyOLC3-17" value="授权" style="rounded=0;whiteSpace=wrap;html=1;" vertex="1" parent="1">
          <mxGeometry x="380" y="470" width="70" height="60" as="geometry" />
        </mxCell>
        <mxCell id="Sm4FwYKMsThW6BvyOLC3-18" value="日志" style="rounded=0;whiteSpace=wrap;html=1;" vertex="1" parent="1">
          <mxGeometry x="379" y="550" width="70" height="60" as="geometry" />
        </mxCell>
        <mxCell id="Sm4FwYKMsThW6BvyOLC3-19" value="跨域" style="rounded=0;whiteSpace=wrap;html=1;" vertex="1" parent="1">
          <mxGeometry x="550" y="480" width="70" height="60" as="geometry" />
        </mxCell>
        <mxCell id="Sm4FwYKMsThW6BvyOLC3-21" style="edgeStyle=orthogonalEdgeStyle;rounded=0;orthogonalLoop=1;jettySize=auto;html=1;exitX=0.5;exitY=0;exitDx=0;exitDy=0;entryX=0.403;entryY=1.018;entryDx=0;entryDy=0;entryPerimeter=0;" edge="1" parent="1" source="Sm4FwYKMsThW6BvyOLC3-20" target="Sm4FwYKMsThW6BvyOLC3-6">
          <mxGeometry relative="1" as="geometry" />
        </mxCell>
      </root>
    </mxGraphModel>
  </diagram>
</mxfile>
